PathFileType	4	(X/Y/Z)	/Users/itak/Documents/Research/Walk-IL/dataset/trc/00057_00006.trc
DataRate	CameraRate	NumFrames	NumMarkers	Units	OrigDataRate	OrigDataStartFrame	OrigNumFrames
100.000000	100.000000	4	53	mm	100.000000	0	491
Frame#	Time	RPSI			LPSI			L3			STRN			T10			C7			CLAV			RBAK			LBAK			LSHO			LUPA			LAEL			LAOL			LWTS			LWPS			LFRA			LIFD			LHPS			LHTS			RSHO			RUPA			RAEL			RAOL			RWTS			RWPS			RFRA			RIFD			RHTS			RHPS			RBHD			LFHD			RFHD			LBHD			LHIP			RHIP			RASI			LASI			LKNE			LTHI			LANK			LTIP			LTOE			LMT1			LMT5			LHEE			RKNE			RTHI			RANK			RTIP			RTOE			RMT1			RMT5			RHEE			
		X1	Y1	Z1	X2	Y2	Z2	X3	Y3	Z3	X4	Y4	Z4	X5	Y5	Z5	X6	Y6	Z6	X7	Y7	Z7	X8	Y8	Z8	X9	Y9	Z9	X10	Y10	Z10	X11	Y11	Z11	X12	Y12	Z12	X13	Y13	Z13	X14	Y14	Z14	X15	Y15	Z15	X16	Y16	Z16	X17	Y17	Z17	X18	Y18	Z18	X19	Y19	Z19	X20	Y20	Z20	X21	Y21	Z21	X22	Y22	Z22	X23	Y23	Z23	X24	Y24	Z24	X25	Y25	Z25	X26	Y26	Z26	X27	Y27	Z27	X28	Y28	Z28	X29	Y29	Z29	X30	Y30	Z30	X31	Y31	Z31	X32	Y32	Z32	X33	Y33	Z33	X34	Y34	Z34	X35	Y35	Z35	X36	Y36	Z36	X37	Y37	Z37	X38	Y38	Z38	X39	Y39	Z39	X40	Y40	Z40	X41	Y41	Z41	X42	Y42	Z42	X43	Y43	Z43	X44	Y44	Z44	X45	Y45	Z45	X46	Y46	Z46	X47	Y47	Z47	X48	Y48	Z48	X49	Y49	Z49	X50	Y50	Z50	X51	Y51	Z51	X52	Y52	Z52	X53	Y53	Z53	

1	0	919.7631225585938	1025.05615234375	-195.3732147216797	904.0428466796875	1021.763000488281	-372.0968627929688	916.091552734375	1070.5771484375	-291.5325317382812	1153.93359375	1276.636108398438	-292.0196838378906	888.8404541015625	1203.343017578125	-300.1746215820312	937.4327392578125	1473.10986328125	-303.3072509765625	1120.255737304688	1390.116577148438	-294.6451110839844	878.1079711914062	1331.895751953125	-229.578125	921.0018310546875	1434.115112304688	-405.40576171875	1027.406127929688	1440.130737304688	-473.897216796875	1020.179931640625	1310.375854492188	-549.1129760742188	1052.308227539062	1094.48388671875	-556.83447265625	985.6585693359375	1080.857666015625	-475.4861755371094	1143.835815429688	859.0389404296875	-480.3867797851562	1090.746826171875	845.3465576171875	-544.5091552734375	1076.347534179688	986.2884521484375	-559.3831176757812	1157.113403320312	672.7865600585938	-454.8186340332031	1124.212280273438	765.0294189453125	-535.1851196289062	1167.393920898438	776.8448486328125	-479.4904479980469	997.02734375	1437.55322265625	-124.7567520141602	987.4823608398438	1367.572143554688	-61.77476119995117	971.722900390625	1099.898559570312	-39.92356491088867	995.3705444335938	1079.947875976562	-133.8444213867188	1125.683227539062	853.916748046875	-69.36341857910156	1054.218383789062	837.8385009765625	-22.44954490661621	990.5023803710938	1021.85205078125	-31.62711524963379	1122.22216796875	666.595947265625	-95.01919555664062	1147.899536132812	749.23193359375	-69.60964202880859	1089.78369140625	747.5244140625	-19.85171127319336	966.3358154296875	1656.386962890625	-367.6203918457031	1117.875732421875	1690.290405273438	-216.3104858398438	1137.903686523438	1698.66162109375	-340.6038513183594	953.5953369140625	1640.232666015625	-231.7836151123047	1009.216064453125	951.219482421875	-460.776123046875	984.08740234375	953.9984741210938	-119.4854736328125	1107.654174804688	967.2543334960938	-143.3741302490234	1119.66015625	958.5216064453125	-411.992431640625	1032.02294921875	485.709228515625	-418.7516784667969	1016.926574707031	629.8845825195312	-454.902099609375	929.0289916992188	38.53706359863281	-441.2686767578125	971.301513671875	256.0677490234375	-445.7530517578125	1135.630493164062	31.78224754333496	-438.2197265625	1086.7001953125	33.6069450378418	-383.7879333496094	1030.804443359375	28.01579475402832	-481.376953125	878.7767333984375	36.01239395141602	-365.0093994140625	1030.065185546875	507.2718811035156	-128.131591796875	1054.871826171875	777.8751831054688	-103.8235549926758	930.351318359375	37.20185852050781	-118.912239074707	1001.705505371094	389.2063598632812	-119.8974227905273	1147.691528320312	28.7361011505127	-154.1564636230469	1085.883544921875	33.55414962768555	-195.1221160888672	1055.29150390625	37.55648422241211	-102.096305847168	883.1746826171875	37.12116622924805	-175.1185913085938	
2	0.01	919.8623046875	1025.076171875	-195.3815460205078	904.056396484375	1021.781127929688	-372.1150207519531	916.1127319335938	1070.61474609375	-291.562255859375	1154.12939453125	1276.615112304688	-292.0281677246094	889.0025634765625	1203.40673828125	-300.1588134765625	937.670654296875	1473.139404296875	-303.2989807128906	1120.504150390625	1390.080200195312	-294.6436157226562	878.41748046875	1331.964477539062	-229.5350799560547	921.1871337890625	1434.158935546875	-405.3983154296875	1027.620361328125	1440.168823242188	-473.8902893066406	1020.260620117188	1310.360595703125	-549.1106567382812	1052.0791015625	1094.407592773438	-556.7760009765625	985.4619140625	1080.986572265625	-475.4276428222656	1143.081665039062	858.8218994140625	-480.25048828125	1090.038696289062	845.2762451171875	-544.38037109375	1075.858154296875	986.1934814453125	-559.2623291015625	1155.974487304688	672.6390991210938	-454.7389221191406	1123.23193359375	764.8009033203125	-534.9830932617188	1166.500610351562	776.5925903320312	-479.3786926269531	997.2218627929688	1437.572143554688	-124.7600250244141	987.783935546875	1367.565185546875	-61.71789169311523	971.8719482421875	1099.896118164062	-39.93018341064453	995.4561767578125	1079.954223632812	-133.8876495361328	1125.583862304688	853.8138427734375	-69.43624114990234	1054.18505859375	837.8038940429688	-22.47588539123535	990.5802001953125	1021.853576660156	-31.64885711669922	1122.238891601562	666.3008422851562	-94.84376525878906	1147.72705078125	749.1403198242188	-69.69071960449219	1089.53076171875	747.4454956054688	-19.94189071655273	966.4164428710938	1656.20849609375	-367.6016540527344	1117.908325195312	1690.406372070312	-216.3450469970703	1137.956787109375	1698.787109375	-340.608642578125	953.7000732421875	1640.05126953125	-231.7647705078125	1009.137756347656	951.2322387695312	-460.8062133789062	984.1656494140625	954.0093994140625	-119.4954376220703	1107.769775390625	967.2466430664062	-143.3835754394531	1119.699829101562	958.5050048828125	-411.9948120117188	1032.1201171875	485.8637390136719	-418.8432006835938	1016.978820800781	629.8870849609375	-454.92578125	929.02880859375	38.5369987487793	-441.271728515625	971.3258056640625	256.0675048828125	-445.7574462890625	1135.639770507812	31.77007102966309	-438.2229309082031	1086.699340820312	33.60255432128906	-383.7849426269531	1030.805786132812	28.02018737792969	-481.3778686523438	878.77734375	36.02244186401367	-365.0130310058594	1030.09765625	507.2618408203125	-128.1479034423828	1054.937133789062	777.8737182617188	-103.8284301757812	930.34130859375	37.19536972045898	-118.9148941040039	1001.7451171875	389.2065124511719	-119.9132461547852	1147.691284179688	28.73343467712402	-154.1531524658203	1085.890747070312	33.55096054077148	-195.1283721923828	1055.293090820312	37.56143569946289	-102.0970306396484	883.1724853515625	37.12305450439453	-175.1223602294922	
3	0.02	920.0045166015625	1025.098999023438	-195.3821258544922	904.0700073242188	1021.802429199219	-372.1344604492188	916.1622924804688	1070.664428710938	-291.5882263183594	1154.368530273438	1276.584228515625	-292.0300598144531	889.227294921875	1203.484497070312	-300.1288146972656	937.97509765625	1473.177978515625	-303.2809753417969	1120.800903320312	1390.037475585938	-294.6409301757812	878.7908325195312	1332.04833984375	-229.4805145263672	921.427001953125	1434.217407226562	-405.3766174316406	1027.892333984375	1440.217895507812	-473.8738403320312	1020.355041503906	1310.3505859375	-549.10595703125	1051.791381835938	1094.324096679688	-556.7127075195312	985.2026977539062	1081.157958984375	-475.3701477050781	1142.163696289062	858.5550537109375	-480.0885620117188	1089.169799804688	845.1887817382812	-544.2415771484375	1075.271850585938	986.0874633789062	-559.132568359375	1154.583740234375	672.4285888671875	-454.6118774414062	1122.053833007812	764.54248046875	-534.7659301757812	1165.394775390625	776.28564453125	-479.2318115234375	997.4719848632812	1437.594970703125	-124.7560119628906	988.130615234375	1367.559936523438	-61.66153717041016	972.0615234375	1099.894409179688	-39.93280029296875	995.5584106445312	1079.964721679688	-133.9384002685547	1125.469482421875	853.6897583007812	-69.53073883056641	1054.148071289062	837.761962890625	-22.51365089416504	990.6791381835938	1021.85498046875	-31.67399215698242	1122.238647460938	665.94970703125	-94.65137481689453	1147.51123046875	749.0265502929688	-69.80520629882812	1089.224609375	747.348876953125	-20.06407737731934	966.5233154296875	1655.98046875	-367.5831604003906	1117.9560546875	1690.559326171875	-216.3933563232422	1138.02490234375	1698.953125	-340.6212463378906	953.8327026367188	1639.83251953125	-231.7431030273438	1009.056091308594	951.2479248046875	-460.8370666503906	984.2632446289062	954.02294921875	-119.5039520263672	1107.9130859375	967.2332153320312	-143.3964385986328	1119.74267578125	958.4810791015625	-411.994140625	1032.241943359375	486.0604248046875	-418.9570922851562	1017.046203613281	629.887939453125	-454.9494018554688	929.0310668945312	38.53688430786133	-441.2759399414062	971.3533325195312	256.0679626464844	-445.7615661621094	1135.649291992188	31.75616264343262	-438.22509765625	1086.699951171875	33.59720611572266	-383.7804565429688	1030.808227539062	28.02634620666504	-481.37890625	878.7772827148438	36.03519821166992	-365.0172729492188	1030.135009765625	507.246826171875	-128.1696166992188	1055.012817382812	777.8692016601562	-103.8318939208984	930.33251953125	37.18971252441406	-118.9175491333008	1001.7958984375	389.2045593261719	-119.9300308227539	1147.691162109375	28.72944641113281	-154.1497650146484	1085.8974609375	33.54750061035156	-195.1344146728516	1055.294555664062	37.5666618347168	-102.0982971191406	883.168701171875	37.12663269042969	-175.1279449462891	
4	0.03	920.1895141601562	1025.121704101562	-195.3697662353516	904.081298828125	1021.825317382812	-372.1525573730469	916.26025390625	1070.724731445312	-291.6022644042969	1154.63720703125	1276.542236328125	-292.0220336914062	889.5147094726562	1203.572387695312	-300.0815124511719	938.3348999023438	1473.224853515625	-303.25048828125	1121.127075195312	1389.991333007812	-294.6370239257812	879.2045288085938	1332.142456054688	-229.4163818359375	921.7137451171875	1434.28955078125	-405.3362731933594	1028.210327148438	1440.276123046875	-473.8461303710938	1020.456176757812	1310.350708007812	-549.0982666015625	1051.45751953125	1094.243286132812	-556.652099609375	984.8865966796875	1081.366333007812	-475.3242492675781	1141.135009765625	858.2590942382812	-479.9163513183594	1088.188232421875	845.0884399414062	-544.108642578125	1074.626098632812	985.9808959960938	-559.0099487304688	1153.018798828125	672.16455078125	-454.4385070800781	1120.751953125	764.2801513671875	-534.5576782226562	1164.13525390625	775.9476318359375	-479.0590209960938	997.7704467773438	1437.620727539062	-124.7418975830078	988.4955444335938	1367.5576171875	-61.61382293701172	972.2825927734375	1099.89404296875	-39.92998123168945	995.67138671875	1079.9794921875	-133.9928588867188	1125.350341796875	853.5526123046875	-69.64425659179688	1054.110961914062	837.7149047851562	-22.56380844116211	990.7951049804688	1021.855712890625	-31.70077133178711	1122.217407226562	665.5676879882812	-94.46218872070312	1147.263427734375	748.89599609375	-69.95274353027344	1088.890869140625	747.2412109375	-20.21398162841797	966.6553955078125	1655.7119140625	-367.5683288574219	1118.019409179688	1690.74560546875	-216.4541625976562	1138.106567382812	1699.156005859375	-340.6445617675781	953.9883422851562	1639.590209960938	-231.7205810546875	1008.981140136719	951.2656860351562	-460.8650512695312	984.3767700195312	954.0379028320312	-119.5085525512695	1108.075805664062	967.2153930664062	-143.4129180908203	1119.785034179688	958.4503784179688	-411.9891357421875	1032.378540039062	486.2796630859375	-419.0809631347656	1017.125305175781	629.8853759765625	-454.9699096679688	929.0360717773438	38.53714752197266	-441.2807006835938	971.3811645507812	256.0691833496094	-445.7644958496094	1135.657958984375	31.74195289611816	-438.2253723144531	1086.70263671875	33.59087753295898	-383.7745971679688	1030.811401367188	28.03379440307617	-481.3799133300781	878.7767944335938	36.04949188232422	-365.0213928222656	1030.173950195312	507.2262268066406	-128.1969451904297	1055.093017578125	777.8612060546875	-103.8334884643555	930.32666015625	37.18592834472656	-118.9198150634766	1001.857666015625	389.2004699707031	-119.9465026855469	1147.691528320312	28.72410774230957	-154.1469268798828	1085.9033203125	33.54384994506836	-195.1400451660156	1055.295288085938	37.57159042358398	-102.100227355957	883.1630249023438	37.13251495361328	-175.1352081298828	
